<?xml version="1.0" encoding="utf-8"?>
<!-- Generator: Adobe Illustrator 27.8.0, SVG Export Plug-In . SVG Version: 6.00 Build 0)  -->
<svg version="1.1" id="Layer_1" xmlns="http://www.w3.org/2000/svg" xmlns:xlink="http://www.w3.org/1999/xlink" x="0px" y="0px"
	 viewBox="0 0 552.9 203.1" style="enable-background:new 0 0 552.9 203.1;" xml:space="preserve">
<style type="text/css">
	.Drop_x0020_Shadow{fill:none;}
	.Round_x0020_Corners_x0020_2_x0020_pt{fill:#FFFFFF;stroke:#231F20;stroke-miterlimit:10;}
	.Live_x0020_Reflect_x0020_X{fill:none;}
	.Bevel_x0020_Soft{fill:url(#SVGID_1_);}
	.Dusk{fill:#FFFFFF;}
	.Foliage_GS{fill:#FFDD00;}
	.Pompadour_GS{fill-rule:evenodd;clip-rule:evenodd;fill:#44ADE2;}
	.st0{opacity:0.44;}
	.st1{fill:url(#SVGID_00000164474672129693629100000017586459665124251268_);}
	
		.st2{clip-path:url(#SVGID_00000149343135091451449010000000876616772711018388_);fill:url(#XMLID_00000017509053707197494450000010474674922678153629_);}
	.st3{opacity:0.46;fill:#8C8D87;}
	.st4{fill:url(#SVGID_00000014624622055499238930000011577094700568101040_);}
	.st5{fill:url(#SVGID_00000058571686183963628240000010784669262954145953_);}
	.st6{fill:#DE873B;}
	.st7{fill:#009900;}
	.st8{fill:#2264D1;}
	.st9{fill:url(#SVGID_00000058567786169876871830000010926522809390233781_);}
	.st10{fill:#1D526E;}
	.st11{fill:#00AFF2;}
	.st12{fill:#F78F1E;}
	.st13{clip-path:url(#SVGID_00000065075412872461015770000000555177995119292340_);fill:#F77F22;}
	.st14{clip-path:url(#XMLID_00000051371659688224347250000017107991549170257837_);fill:#018CD4;}
	.st15{fill:#0082CD;}
	.st16{fill:#018CD4;}
	.st17{clip-path:url(#SVGID_00000101801238920038110910000004217949322717638329_);fill:#F77F22;}
	.st18{fill:url(#SVGID_00000161627329692605890070000000075703127507442094_);}
	.st19{clip-path:url(#XMLID_00000089570973823800202700000001220620924169497493_);fill:#018CD4;}
	.st20{filter:url(#Adobe_OpacityMaskFilter);}
	.st21{mask:url(#SVGID_00000062896479406975748370000000852855930645688735_);}
	.st22{fill:#FFFFFF;}
	.st23{fill:url(#SVGID_00000111887746845798819990000001044591529400193691_);}
	.st24{fill:url(#SVGID_00000144319141816254575170000000498668491100982401_);}
	.st25{fill:url(#SVGID_00000170277636834067045290000013004241615032564365_);}
	.st26{fill:url(#SVGID_00000140720420278469906120000012956046823448538269_);}
	.st27{fill:url(#SVGID_00000058566015501952536400000006226208112382439847_);}
	.st28{fill:url(#SVGID_00000028317705200518898870000016236691659153596581_);}
	.st29{fill:url(#SVGID_00000142865109227168306260000009672823878062901435_);}
	.st30{fill:#707F9B;}
	.st31{fill:url(#SVGID_00000170246669287727994600000008151186126072066974_);}
	.st32{fill:none;stroke:#707F9B;stroke-miterlimit:10;}
	.st33{fill:none;stroke:#707F9B;stroke-miterlimit:10;stroke-dasharray:6.0992,6.0992;}
	.st34{fill:url(#SVGID_00000096055550631121969130000018296805606969868218_);}
	.st35{fill:url(#SVGID_00000152238998986965324640000012906891726721616008_);}
	.st36{fill:url(#SVGID_00000119820825856571980220000017971582114345937321_);}
	.st37{fill:url(#SVGID_00000052812313547789077010000010370668809979869600_);}
	.st38{fill:url(#SVGID_00000023253749226459052150000017140042882073338265_);}
	.st39{fill:url(#SVGID_00000025436887687040792470000008357681818861936520_);}
	.st40{fill:url(#SVGID_00000098932419658300177660000002515651829656699043_);}
	.st41{fill:url(#SVGID_00000167371948462676050650000006373752536908402859_);}
	.st42{fill:url(#SVGID_00000141449470650411971120000016771639888654533304_);}
	.st43{fill:url(#SVGID_00000054242168166018625710000004279904284808897434_);}
	.st44{fill:url(#SVGID_00000093891993965942420250000004391214715740400311_);}
	.st45{fill:url(#SVGID_00000060021566206729619630000002661667212599312552_);}
	.st46{fill:url(#SVGID_00000090263108293681714640000017685351433349979831_);}
	.st47{fill:url(#SVGID_00000094614172059062862170000015546741838278367675_);}
	.st48{fill:url(#SVGID_00000103231226505525332760000006494573124931248265_);}
	.st49{fill:url(#SVGID_00000168813906864960681240000001721196590615698107_);}
	.st50{fill:url(#SVGID_00000112627034051767375930000010257443419494793142_);}
	.st51{fill:url(#SVGID_00000018936638177450021980000007455612405892269197_);}
	.st52{fill:url(#SVGID_00000088108457943571635590000010250524212666490796_);}
	.st53{fill:url(#SVGID_00000036954590193929680380000002308918916837125310_);}
	.st54{fill:url(#SVGID_00000146496647275485946440000000065697210337780356_);}
	.st55{fill:#E08634;}
	.st56{fill:url(#SVGID_00000023979271355865450540000013375934292697712021_);}
	.st57{fill:none;stroke:#FFFFFF;stroke-width:0.9788;stroke-miterlimit:10;}
	.st58{fill:none;stroke:#FFFFFF;stroke-width:0.9788;stroke-miterlimit:10;stroke-dasharray:5.97,5.97;}
	.st59{fill:#141414;}
	.st60{fill:url(#SVGID_00000134960413201369801960000014603019751665928622_);}
	.st61{fill:#127712;}
	.st62{fill:url(#SVGID_00000088840421469389982760000016844959698202828167_);}
	.st63{fill:url(#SVGID_00000124122692766402633270000013916429827150435993_);}
	.st64{fill:none;stroke:#009900;stroke-width:0.9788;stroke-miterlimit:10;stroke-dasharray:5.97,5.97;}
	.st65{fill:url(#SVGID_00000026130183538235988630000014034424211689759672_);}
	.st66{fill:url(#SVGID_00000076576983113407118290000013199470404084333194_);}
	.st67{fill:url(#SVGID_00000042718082501092070310000007402466702687714438_);}
	.st68{fill:none;stroke:#707F9B;stroke-width:0.9788;stroke-miterlimit:10;}
	.st69{fill:none;stroke:#707F9B;stroke-width:0.9788;stroke-miterlimit:10;stroke-dasharray:5.97,5.97;}
	.st70{fill:#AA5B26;}
	.st71{fill:url(#SVGID_00000119818714115073551020000016153146192411062409_);}
	.st72{fill:#51617A;}
	.st73{fill:url(#SVGID_00000068650138539567354880000014063245912605859747_);}
	.st74{fill:none;stroke:#707F9B;stroke-width:1.8228;stroke-miterlimit:10;}
	.st75{fill:none;stroke:#707F9B;stroke-width:1.8228;stroke-miterlimit:10;stroke-dasharray:11.1189,11.1189;}
	.st76{fill:url(#SVGID_00000060013100188110623750000010945629832631738248_);}
	.st77{fill:url(#SVGID_00000147201495504580728200000014361568959007869836_);}
	.st78{fill:none;stroke:#707F9B;stroke-width:1.3491;stroke-miterlimit:10;}
	.st79{fill:none;stroke:#707F9B;stroke-width:1.3491;stroke-miterlimit:10;stroke-dasharray:8.229,8.229;}
	.st80{fill:url(#SVGID_00000131334569836392947180000015538410711890439578_);}
</style>
<linearGradient id="SVGID_1_" gradientUnits="userSpaceOnUse" x1="-2698.1304" y1="2454" x2="-2697.4233" y2="2454.707">
	<stop  offset="0" style="stop-color:#DEDFE3"/>
	<stop  offset="0.1783" style="stop-color:#DADBDF"/>
	<stop  offset="0.3611" style="stop-color:#CECFD3"/>
	<stop  offset="0.546" style="stop-color:#B9BCBF"/>
	<stop  offset="0.7324" style="stop-color:#9CA0A2"/>
	<stop  offset="0.9181" style="stop-color:#787D7E"/>
	<stop  offset="1" style="stop-color:#656B6C"/>
</linearGradient>
<g>
	<g>
		<g>
			<path class="st22" d="M242.3,149.3c-0.2-0.2-0.3-0.5-0.3-0.9v-11.3h-3.2c-0.4,0-0.7-0.1-0.9-0.4c-0.2-0.2-0.4-0.5-0.4-0.9
				c0-0.3,0.1-0.6,0.4-0.9c0.2-0.2,0.5-0.4,0.9-0.4h8.8c0.2,0,0.3,0,0.5,0.1c0.2,0.1,0.3,0.2,0.4,0.3c0.2,0.2,0.4,0.5,0.4,0.9
				s-0.1,0.6-0.4,0.9c-0.1,0.1-0.2,0.2-0.4,0.3s-0.3,0.1-0.5,0.1h-3.2v11.3c0,0.3-0.1,0.6-0.4,0.9c-0.2,0.2-0.5,0.4-0.9,0.4
				C242.8,149.7,242.5,149.6,242.3,149.3z"/>
			<path class="st22" d="M255.6,149.2c-0.2-0.2-0.4-0.5-0.4-0.9v-12.4c0-0.2,0-0.3,0.1-0.5c0.1-0.2,0.2-0.3,0.3-0.4
				c0.2-0.2,0.5-0.4,0.9-0.4h4.2c0.8,0,1.5,0.1,2.1,0.4c0.7,0.3,1.3,0.7,1.8,1.2c0.5,0.5,0.9,1.1,1.2,1.8c0.3,0.7,0.4,1.4,0.4,2.2
				c0,0.6-0.1,1.1-0.2,1.6c-0.2,0.5-0.4,1-0.7,1.4c-0.3,0.4-0.6,0.8-1.1,1.2c-0.4,0.3-0.9,0.6-1.4,0.8l2.2,2.2
				c0.1,0.1,0.2,0.3,0.3,0.4c0.1,0.2,0.1,0.3,0.1,0.5c0,0.3-0.1,0.6-0.4,0.9c-0.1,0.1-0.3,0.2-0.4,0.3s-0.3,0.1-0.5,0.1
				c-0.4,0-0.6-0.1-0.9-0.4l-3.5-3.6h-2v2.7c0,0.3-0.1,0.6-0.4,0.9c-0.1,0.1-0.2,0.2-0.4,0.3s-0.3,0.1-0.5,0.1
				C256.1,149.6,255.8,149.5,255.6,149.2z M260.6,143.1c0.4,0,0.8-0.1,1.2-0.2c0.4-0.2,0.7-0.4,1-0.6c0.3-0.3,0.5-0.6,0.6-0.9
				c0.2-0.3,0.2-0.7,0.2-1.1c0-0.4-0.1-0.8-0.2-1.2c-0.2-0.4-0.4-0.7-0.6-1c-0.3-0.3-0.6-0.5-1-0.6c-0.4-0.2-0.7-0.2-1.1-0.2h-2.9
				v5.9H260.6z"/>
			<path class="st22" d="M273.3,149.3c-0.3-0.2-0.4-0.5-0.4-0.9v-8c0-0.8,0.1-1.6,0.4-2.3c0.2-0.7,0.6-1.3,1-1.8
				c0.5-0.5,1-0.9,1.7-1.2s1.4-0.4,2.3-0.4c0.8,0,1.6,0.1,2.3,0.4s1.3,0.7,1.8,1.2c0.5,0.5,0.8,1.2,1.1,1.9s0.4,1.5,0.4,2.4v7.8
				c0,0.4-0.1,0.7-0.4,0.9c-0.3,0.2-0.6,0.4-0.9,0.4c-0.4,0-0.7-0.1-0.9-0.4c-0.3-0.2-0.4-0.5-0.4-0.9v-2.9h-5.7v2.9
				c0,0.4-0.1,0.7-0.4,0.9c-0.3,0.2-0.6,0.4-0.9,0.4C273.8,149.7,273.5,149.5,273.3,149.3z M281.2,143v-2.3c0-0.5-0.1-1-0.2-1.4
				c-0.1-0.4-0.3-0.8-0.6-1.1c-0.3-0.3-0.6-0.5-0.9-0.7c-0.4-0.2-0.7-0.2-1.2-0.2c-0.9,0-1.6,0.3-2.1,0.9c-0.5,0.6-0.7,1.4-0.7,2.5
				v2.4H281.2z"/>
			<path class="st22" d="M295.7,149.7L295.7,149.7l-0.2,0c-0.4-0.1-0.6-0.3-0.8-0.7l-5.1-12.6c-0.1-0.2-0.1-0.3-0.1-0.5
				c0-0.3,0.1-0.6,0.3-0.8c0.2-0.3,0.5-0.4,0.9-0.4c0.2,0,0.5,0.1,0.7,0.2c0.2,0.1,0.4,0.3,0.5,0.6l4,9.7l3.9-9.7
				c0.1-0.2,0.2-0.4,0.5-0.6c0.2-0.1,0.4-0.2,0.7-0.2c0.2,0,0.3,0,0.5,0.1c0.2,0.1,0.3,0.2,0.4,0.3c0.2,0.2,0.3,0.5,0.3,0.8
				c0,0.2,0,0.3-0.1,0.5l-5,12.4c-0.1,0.3-0.3,0.5-0.5,0.7c-0.2,0.2-0.4,0.2-0.7,0.2C295.8,149.7,295.7,149.7,295.7,149.7z"/>
			<path class="st22" d="M309.1,149.2c-0.2-0.2-0.3-0.5-0.3-0.9v-12.4c0-0.4,0.1-0.7,0.4-0.9c0.2-0.2,0.5-0.4,0.9-0.4h6.9
				c0.3,0,0.6,0.1,0.9,0.4c0.1,0.1,0.2,0.2,0.3,0.4s0.1,0.3,0.1,0.5c0,0.4-0.1,0.7-0.4,0.9c-0.2,0.2-0.5,0.4-0.9,0.4h-5.7v3.6h4.2
				c0.4,0,0.7,0.1,0.9,0.4c0.2,0.2,0.4,0.5,0.4,0.9s-0.1,0.6-0.4,0.9c-0.2,0.2-0.5,0.4-0.9,0.4h-4.2v3.9h5.7c0.3,0,0.6,0.1,0.9,0.4
				c0.1,0.1,0.2,0.2,0.3,0.4s0.1,0.3,0.1,0.5c0,0.4-0.1,0.7-0.4,0.9c-0.2,0.2-0.5,0.4-0.9,0.4h-7
				C309.6,149.5,309.3,149.4,309.1,149.2z"/>
			<path class="st22" d="M325.5,149.5c-0.1-0.1-0.3-0.2-0.4-0.3c-0.2-0.2-0.3-0.5-0.3-0.9v-12.4c0-0.3,0.1-0.6,0.4-0.9
				c0.2-0.2,0.5-0.4,0.9-0.4c0.4,0,0.7,0.1,0.9,0.4c0.2,0.2,0.4,0.5,0.4,0.9v11.2l5.7,0c0.4,0,0.7,0.1,0.9,0.4
				c0.2,0.2,0.4,0.5,0.4,0.9c0,0.4-0.1,0.7-0.4,0.9c-0.2,0.2-0.5,0.4-0.9,0.4h-7C325.8,149.6,325.7,149.5,325.5,149.5z"/>
			<path class="st22" d="M351.7,149.5c-0.1-0.1-0.3-0.2-0.4-0.3c-0.2-0.2-0.3-0.5-0.3-0.9v-12.4c0-0.3,0.1-0.6,0.4-0.9
				c0.2-0.2,0.5-0.4,0.9-0.4c0.4,0,0.7,0.1,0.9,0.4c0.2,0.2,0.4,0.5,0.4,0.9v11.2l5.7,0c0.4,0,0.7,0.1,0.9,0.4
				c0.2,0.2,0.4,0.5,0.4,0.9c0,0.4-0.1,0.7-0.4,0.9c-0.2,0.2-0.5,0.4-0.9,0.4h-7C352,149.6,351.9,149.5,351.7,149.5z"/>
			<path class="st22" d="M367.8,149.3c-0.2-0.2-0.4-0.5-0.4-0.9v-12.6c0-0.3,0.1-0.6,0.4-0.9c0.2-0.2,0.5-0.3,0.9-0.3
				c0.4,0,0.7,0.1,0.9,0.3s0.4,0.5,0.4,0.9v12.6c0,0.4-0.1,0.6-0.4,0.9c-0.2,0.2-0.5,0.4-0.9,0.4C368.3,149.7,368,149.6,367.8,149.3
				z"/>
			<path class="st22" d="M377.9,149.2c-0.2-0.2-0.4-0.5-0.4-0.9v-12.4c0-0.3,0.1-0.6,0.4-0.9c0.2-0.2,0.5-0.3,0.9-0.3
				c0.3,0,0.6,0.1,0.9,0.3c0.2,0.2,0.4,0.5,0.4,0.9v4.3l5.8-5.2c0.3-0.2,0.5-0.3,0.8-0.3c0.2,0,0.3,0,0.5,0.1s0.3,0.2,0.4,0.3
				c0.1,0.1,0.2,0.3,0.3,0.4c0.1,0.2,0.1,0.3,0.1,0.5c0,0.3-0.1,0.6-0.4,0.9l-5.7,5l6,5.5c0.2,0.2,0.4,0.5,0.4,0.9
				c0,0.2,0,0.3-0.1,0.5c-0.1,0.2-0.2,0.3-0.3,0.4c-0.2,0.3-0.5,0.4-0.9,0.4s-0.6-0.1-0.9-0.4l-6-5.6v4.7c0,0.4-0.1,0.6-0.4,0.9
				c-0.2,0.2-0.5,0.4-0.9,0.4C378.4,149.6,378.1,149.5,377.9,149.2z"/>
			<path class="st22" d="M395,149.2c-0.2-0.2-0.3-0.5-0.3-0.9v-12.4c0-0.4,0.1-0.7,0.4-0.9c0.2-0.2,0.5-0.4,0.9-0.4h6.9
				c0.3,0,0.6,0.1,0.9,0.4c0.1,0.1,0.2,0.2,0.3,0.4s0.1,0.3,0.1,0.5c0,0.4-0.1,0.7-0.4,0.9c-0.2,0.2-0.5,0.4-0.9,0.4h-5.7v3.6h4.2
				c0.4,0,0.7,0.1,0.9,0.4c0.2,0.2,0.4,0.5,0.4,0.9s-0.1,0.6-0.4,0.9c-0.2,0.2-0.5,0.4-0.9,0.4h-4.2v3.9h5.7c0.3,0,0.6,0.1,0.9,0.4
				c0.1,0.1,0.2,0.2,0.3,0.4s0.1,0.3,0.1,0.5c0,0.4-0.1,0.7-0.4,0.9c-0.2,0.2-0.5,0.4-0.9,0.4h-7C395.5,149.5,395.2,149.4,395,149.2
				z"/>
			<path class="st22" d="M420.9,149.3c-0.2-0.2-0.4-0.5-0.4-0.9v-12.6c0-0.3,0.1-0.6,0.4-0.9c0.2-0.2,0.5-0.3,0.9-0.3
				c0.3,0,0.6,0.1,0.9,0.3c0.2,0.2,0.4,0.5,0.4,0.9v5.4h5.9v-5.4c0-0.3,0.1-0.6,0.4-0.9c0.2-0.2,0.5-0.3,0.9-0.3s0.6,0.1,0.9,0.3
				c0.2,0.2,0.4,0.5,0.4,0.9v12.6c0,0.3-0.1,0.6-0.4,0.9c-0.1,0.1-0.2,0.2-0.4,0.3c-0.2,0.1-0.3,0.1-0.5,0.1c-0.3,0-0.6-0.1-0.9-0.4
				c-0.2-0.2-0.4-0.5-0.4-0.9v-4.6H423v4.6c0,0.4-0.1,0.6-0.4,0.9c-0.2,0.2-0.5,0.4-0.9,0.4C421.4,149.7,421.1,149.6,420.9,149.3z"
				/>
			<path class="st22" d="M442.3,149.3c-0.7-0.3-1.3-0.7-1.8-1.2c-0.5-0.5-0.9-1.1-1.2-1.8c-0.3-0.7-0.4-1.4-0.4-2.2v-3.9
				c0-0.8,0.1-1.5,0.4-2.2c0.3-0.7,0.7-1.3,1.2-1.8c0.5-0.5,1.1-0.9,1.8-1.2c0.7-0.3,1.4-0.4,2.1-0.4c0.8,0,1.5,0.1,2.2,0.4
				c0.7,0.3,1.3,0.7,1.8,1.2c0.5,0.5,0.9,1.1,1.2,1.8s0.4,1.4,0.4,2.2v3.9c0,0.8-0.1,1.5-0.4,2.2s-0.7,1.3-1.2,1.8
				c-0.5,0.5-1.1,0.9-1.8,1.2c-0.7,0.3-1.4,0.4-2.2,0.4C443.7,149.7,443,149.6,442.3,149.3z M445.6,147c0.4-0.1,0.7-0.3,1-0.6
				c0.3-0.3,0.5-0.6,0.7-1c0.2-0.4,0.2-0.8,0.2-1.3v-3.9c0-0.5-0.1-0.9-0.2-1.3s-0.4-0.7-0.7-1c-0.3-0.3-0.6-0.5-1-0.6
				c-0.4-0.1-0.8-0.2-1.2-0.2s-0.8,0.1-1.2,0.2c-0.4,0.1-0.7,0.3-1,0.6c-0.3,0.3-0.5,0.6-0.7,1s-0.2,0.8-0.2,1.3v3.9
				c0,0.5,0.1,0.9,0.2,1.3c0.2,0.4,0.4,0.7,0.7,1c0.3,0.3,0.6,0.5,1,0.6c0.4,0.1,0.8,0.2,1.2,0.2S445.3,147.1,445.6,147z"/>
			<path class="st22" d="M457.7,149.2c-0.3-0.2-0.4-0.5-0.4-0.9v-9.2c0-0.6,0.1-1.2,0.3-1.7c0.2-0.5,0.5-1,1-1.4
				c0.4-0.4,0.9-0.7,1.4-1c0.5-0.2,1.1-0.3,1.7-0.3c0.6,0,1.2,0.1,1.8,0.4c0.5,0.2,1,0.6,1.4,1c0.4-0.4,0.9-0.8,1.4-1
				c0.5-0.2,1.1-0.4,1.7-0.4c0.6,0,1.2,0.1,1.7,0.3s1,0.6,1.4,1c0.4,0.4,0.7,0.9,1,1.4c0.2,0.5,0.3,1.1,0.3,1.7v9.2
				c0,0.4-0.1,0.7-0.4,0.9c-0.2,0.2-0.6,0.4-0.9,0.4c-0.4,0-0.7-0.1-0.9-0.4c-0.3-0.2-0.4-0.5-0.4-0.9v-9.1c0-0.2-0.1-0.5-0.2-0.7
				s-0.2-0.4-0.4-0.6s-0.4-0.3-0.6-0.4c-0.2-0.1-0.5-0.1-0.7-0.1c-0.3,0-0.5,0-0.7,0.1c-0.2,0.1-0.4,0.2-0.6,0.4
				c-0.2,0.2-0.3,0.4-0.4,0.6c-0.1,0.2-0.1,0.5-0.1,0.7v9.1c0,0.4-0.1,0.7-0.4,0.9c-0.3,0.3-0.6,0.4-0.9,0.4c-0.2,0-0.4,0-0.5-0.1
				c-0.2-0.1-0.3-0.2-0.4-0.3c-0.3-0.2-0.4-0.5-0.4-0.9v-9c0-0.3,0-0.5-0.1-0.7c-0.1-0.2-0.2-0.4-0.4-0.6c-0.2-0.2-0.4-0.3-0.6-0.4
				c-0.2-0.1-0.5-0.1-0.7-0.1c-0.5,0-1,0.2-1.3,0.6c-0.2,0.2-0.3,0.4-0.4,0.6c-0.1,0.2-0.1,0.5-0.1,0.7v9.1c0,0.4-0.1,0.7-0.4,0.9
				c-0.2,0.2-0.6,0.4-0.9,0.4C458.2,149.6,457.9,149.5,457.7,149.2z"/>
			<path class="st22" d="M480.4,149.2c-0.2-0.2-0.3-0.5-0.3-0.9v-12.4c0-0.4,0.1-0.7,0.4-0.9c0.2-0.2,0.5-0.4,0.9-0.4h6.9
				c0.3,0,0.6,0.1,0.9,0.4c0.1,0.1,0.2,0.2,0.3,0.4s0.1,0.3,0.1,0.5c0,0.4-0.1,0.7-0.4,0.9c-0.2,0.2-0.5,0.4-0.9,0.4h-5.7v3.6h4.2
				c0.4,0,0.7,0.1,0.9,0.4c0.2,0.2,0.4,0.5,0.4,0.9s-0.1,0.6-0.4,0.9c-0.2,0.2-0.5,0.4-0.9,0.4h-4.2v3.9h5.7c0.3,0,0.6,0.1,0.9,0.4
				c0.1,0.1,0.2,0.2,0.3,0.4s0.1,0.3,0.1,0.5c0,0.4-0.1,0.7-0.4,0.9c-0.2,0.2-0.5,0.4-0.9,0.4h-7
				C480.9,149.5,480.6,149.4,480.4,149.2z"/>
		</g>
		<g>
			<path class="st55" d="M202.6,115.9c-0.9-0.8-1.3-1.9-1.3-3.2c0-1.2,0.4-2.2,1.3-2.8c0.8-0.6,2-1,3.6-1h14c0.6,0,1.2-0.2,1.9-0.5
				c0.6-0.3,1.2-0.7,1.8-1.3c0.5-0.6,1-1.3,1.3-2.1s0.5-1.7,0.5-2.6c0-1.8-0.6-3.4-1.9-4.6c-0.5-0.5-1.1-0.9-1.8-1.2
				c-0.7-0.3-1.3-0.4-1.9-0.4H214c-2,0-3.9-0.3-5.7-1c-1.8-0.7-3.4-1.6-4.7-2.8c-1.4-1.2-2.4-2.7-3.2-4.4c-0.8-1.7-1.1-3.5-1.1-5.5
				c0-2,0.4-3.9,1.2-5.8c0.8-1.9,1.8-3.5,3.1-4.8c1.3-1.3,2.9-2.4,4.7-3.1c1.8-0.7,3.7-1.1,5.7-1.1h12.8c1.5,0,2.8,0.3,3.6,1
				c0.9,0.7,1.3,1.7,1.3,3c0,1.4-0.4,2.5-1.3,3.2c-0.9,0.7-2.1,1.1-3.6,1.1h-14.3c-0.6,0-1.2,0.2-1.8,0.4c-0.6,0.3-1.1,0.6-1.5,1.1
				c-0.5,0.5-0.9,1.2-1.2,2s-0.4,1.6-0.4,2.5c0,1.7,0.6,3.1,1.7,4.3c0.5,0.5,1,0.9,1.6,1.2c0.6,0.3,1.2,0.4,1.8,0.4h6.2
				c2,0,4,0.3,5.8,1c1.8,0.7,3.4,1.7,4.8,2.9c1.4,1.3,2.4,2.8,3.2,4.5c0.8,1.7,1.2,3.6,1.2,5.6c0,2-0.4,4-1.2,5.8
				c-0.8,1.8-1.8,3.4-3.2,4.9c-1.4,1.4-3,2.5-4.8,3.3s-3.8,1.2-5.8,1.2h-12.9C204.6,117.1,203.4,116.7,202.6,115.9z"/>
			<path class="st55" d="M246.1,116.2c-0.8-0.8-1.3-1.8-1.3-3V86.6c0-2.7,0.4-5.2,1.2-7.5c0.8-2.3,1.9-4.3,3.5-6.1
				c1.5-1.7,3.4-3.1,5.7-4.1c2.2-1,4.7-1.4,7.5-1.4c2.8,0,5.3,0.5,7.6,1.4c2.3,1,4.2,2.3,5.8,4.1c1.6,1.7,2.8,3.8,3.6,6.3
				c0.8,2.4,1.3,5.1,1.3,8v25.9c0,1.2-0.4,2.2-1.2,3c-0.8,0.8-1.9,1.2-3,1.2c-1.2,0-2.2-0.4-3.1-1.2c-0.8-0.8-1.3-1.8-1.3-3v-9.5
				h-18.9v9.5c0,1.2-0.4,2.2-1.3,3c-0.8,0.8-1.9,1.2-3,1.2C247.9,117.4,246.9,117,246.1,116.2z M272.4,95.2v-7.8
				c0-1.7-0.2-3.2-0.7-4.6c-0.4-1.4-1.1-2.6-1.9-3.5c-0.8-1-1.9-1.8-3-2.3c-1.2-0.5-2.5-0.8-3.9-0.8c-3,0-5.3,0.9-6.9,2.8
				c-1.6,1.9-2.5,4.7-2.5,8.3v7.9H272.4z"/>
			<path class="st55" d="M295.6,116.2c-0.8-0.8-1.2-1.7-1.2-2.9V71.7c0-1.1,0.4-2.1,1.2-2.9c0.8-0.8,1.8-1.2,2.9-1.2
				c1.1,0,2.1,0.4,3,1.2c0.8,0.8,1.2,1.8,1.2,2.9v18.1h19.7V71.7c0-1.1,0.4-2.1,1.3-2.9c0.8-0.8,1.8-1.2,2.9-1.2s2.1,0.4,2.9,1.2
				c0.8,0.8,1.2,1.8,1.2,2.9v41.7c0,1.1-0.4,2.1-1.2,2.9c-0.4,0.4-0.8,0.7-1.3,0.9s-1,0.3-1.6,0.3c-1.1,0-2.1-0.4-2.9-1.2
				c-0.8-0.8-1.2-1.7-1.2-2.9V98.1h-19.7v15.2c0,1.2-0.4,2.1-1.2,2.9c-0.8,0.8-1.8,1.2-3,1.2C297.4,117.4,296.4,117,295.6,116.2z"/>
			<path class="st55" d="M345.2,116.2c-0.8-0.8-1.3-1.8-1.3-3V86.6c0-2.7,0.4-5.2,1.2-7.5c0.8-2.3,1.9-4.3,3.5-6.1
				c1.5-1.7,3.4-3.1,5.7-4.1c2.2-1,4.7-1.4,7.5-1.4c2.8,0,5.3,0.5,7.6,1.4c2.3,1,4.2,2.3,5.8,4.1c1.6,1.7,2.8,3.8,3.6,6.3
				c0.8,2.4,1.3,5.1,1.3,8v25.9c0,1.2-0.4,2.2-1.2,3c-0.8,0.8-1.9,1.2-3,1.2c-1.2,0-2.2-0.4-3.1-1.2c-0.8-0.8-1.3-1.8-1.3-3v-9.5
				h-18.9v9.5c0,1.2-0.4,2.2-1.3,3c-0.8,0.8-1.9,1.2-3,1.2C347,117.4,346,117,345.2,116.2z M371.4,95.2v-7.8c0-1.7-0.2-3.2-0.7-4.6
				c-0.4-1.4-1.1-2.6-1.9-3.5c-0.8-1-1.9-1.8-3-2.3c-1.2-0.5-2.5-0.8-3.9-0.8c-3,0-5.3,0.9-6.9,2.8c-1.6,1.9-2.5,4.7-2.5,8.3v7.9
				H371.4z"/>
			<path class="st55" d="M394.4,115.9c-0.8-0.8-1.2-1.8-1.2-2.9V71.7c0-0.5,0.1-1.1,0.3-1.6c0.2-0.5,0.5-1,0.9-1.3
				c0.8-0.8,1.8-1.2,3-1.2h13.8c2.5,0,4.9,0.5,7.1,1.4c2.2,0.9,4.2,2.2,5.9,3.9c1.7,1.7,3,3.7,4,5.9c0.9,2.2,1.4,4.7,1.4,7.4
				c0,1.8-0.3,3.6-0.8,5.3c-0.5,1.7-1.3,3.3-2.3,4.7c-1,1.4-2.1,2.7-3.5,3.8c-1.4,1.1-2.9,2-4.5,2.7l7.2,7.4
				c0.4,0.4,0.7,0.9,0.9,1.4c0.2,0.5,0.3,1,0.3,1.6c0,1.1-0.4,2.1-1.3,2.9c-0.4,0.4-0.9,0.7-1.4,0.9c-0.5,0.2-1,0.3-1.6,0.3
				c-1.2,0-2.1-0.4-2.8-1.2L408.1,104h-6.5v9c0,1.1-0.4,2.1-1.2,2.9c-0.4,0.4-0.8,0.7-1.3,0.9c-0.5,0.2-1,0.3-1.6,0.3
				C396.2,117.1,395.2,116.7,394.4,115.9z M411.3,95.6c1.4,0,2.7-0.2,3.9-0.7c1.2-0.5,2.3-1.2,3.2-2.1c0.9-0.9,1.6-1.9,2.1-3.1
				c0.5-1.2,0.7-2.4,0.7-3.7c0-1.3-0.3-2.6-0.8-3.9c-0.5-1.3-1.2-2.4-2.1-3.3c-0.9-0.9-2-1.6-3.2-2.2c-1.2-0.5-2.5-0.8-3.8-0.8h-9.8
				v19.7H411.3z"/>
			<path class="st55" d="M441.7,116.2c-0.8-0.8-1.3-1.8-1.3-3V86.6c0-2.7,0.4-5.2,1.2-7.5c0.8-2.3,1.9-4.3,3.5-6.1
				c1.5-1.7,3.4-3.1,5.7-4.1c2.2-1,4.7-1.4,7.5-1.4c2.8,0,5.3,0.5,7.6,1.4c2.3,1,4.2,2.3,5.8,4.1c1.6,1.7,2.8,3.8,3.6,6.3
				c0.8,2.4,1.3,5.1,1.3,8v25.9c0,1.2-0.4,2.2-1.2,3c-0.8,0.8-1.9,1.2-3,1.2c-1.2,0-2.2-0.4-3.1-1.2c-0.8-0.8-1.3-1.8-1.3-3v-9.5
				H449v9.5c0,1.2-0.4,2.2-1.3,3c-0.8,0.8-1.9,1.2-3,1.2C443.5,117.4,442.5,117,441.7,116.2z M468,95.2v-7.8c0-1.7-0.2-3.2-0.7-4.6
				c-0.4-1.4-1.1-2.6-1.9-3.5c-0.8-1-1.9-1.8-3-2.3c-1.2-0.5-2.5-0.8-3.9-0.8c-3,0-5.3,0.9-6.9,2.8c-1.6,1.9-2.5,4.7-2.5,8.3v7.9
				H468z"/>
			<path class="st55" d="M491.1,116.2c-0.8-0.8-1.3-1.8-1.3-3V86.6c0-2.7,0.4-5.2,1.2-7.5c0.8-2.3,1.9-4.3,3.5-6.1
				c1.5-1.7,3.4-3.1,5.7-4.1c2.2-1,4.7-1.4,7.5-1.4c2.8,0,5.3,0.5,7.6,1.4c2.3,1,4.2,2.3,5.8,4.1c1.6,1.7,2.8,3.8,3.6,6.3
				c0.8,2.4,1.3,5.1,1.3,8v25.9c0,1.2-0.4,2.2-1.2,3c-0.8,0.8-1.9,1.2-3,1.2c-1.2,0-2.2-0.4-3.1-1.2c-0.8-0.8-1.3-1.8-1.3-3v-9.5
				h-18.9v9.5c0,1.2-0.4,2.2-1.3,3c-0.8,0.8-1.9,1.2-3,1.2C492.8,117.4,491.8,117,491.1,116.2z M517.3,95.2v-7.8
				c0-1.7-0.2-3.2-0.7-4.6c-0.4-1.4-1.1-2.6-1.9-3.5c-0.8-1-1.9-1.8-3-2.3c-1.2-0.5-2.5-0.8-3.9-0.8c-3,0-5.3,0.9-6.9,2.8
				c-1.6,1.9-2.5,4.7-2.5,8.3v7.9H517.3z"/>
		</g>
	</g>
	<g>
		<path class="st55" d="M126.1,51.9c9.3,0,18.6,0.1,27.9-0.1c3.4-0.1,5.4,1,6.7,4.3c10,25.9,6.9,50-10.8,71.6
			c-16.3,19.9-33.3,39.3-49.8,59c-2.6,3.2-4.1,3.1-6.6,0c-14.4-17.1-28.9-34.1-43.3-51.1c-0.9-1.1-2.7-2.1-2.1-3.6
			c0.8-1.7,2.9-0.9,4.4-0.9c14.3-0.1,28.7,0.1,43-0.1c12.5-0.2,22.4-5.3,28.3-16.7c6.7-13.1,1.9-29.1-11-36.5
			c-5.4-3.1-11-5.7-16.5-8.6c-1.2-0.6-2.4-1.1-3.5-1.8c-3.6-2.2-7.2-4.7-5.7-9.6c1.3-4.6,5.3-5.9,9.6-6
			C106.5,51.8,116.3,51.9,126.1,51.9C126.1,51.9,126.1,51.9,126.1,51.9z"/>
		
			<radialGradient id="SVGID_00000145030347630012946700000014172723546960963724_" cx="84.8394" cy="63.4276" r="53.7661" gradientUnits="userSpaceOnUse">
			<stop  offset="0" style="stop-color:#FFC700"/>
			<stop  offset="1" style="stop-color:#E08634"/>
		</radialGradient>
		<path style="fill:url(#SVGID_00000145030347630012946700000014172723546960963724_);" d="M66.7,112.7c-9.3,0-18.6-0.1-27.9,0.1
			c-3.9,0.1-5.9-1.5-7.3-5c-16-39.9,12.2-87.6,54.8-93.1c20-2.6,37.8,2.3,53.6,14.5c1.1,0.8,3.1,1.5,2.5,3.2c-0.6,1.7-2.5,1-3.9,1.1
			c-14.7,0.1-29.3-0.2-44,0.1C79.5,33.9,67.5,47,68.4,61.9c0.5,8.8,5.5,15.2,12.5,20c4.4,3.1,9.4,5.2,14.3,7.3
			c3,1.3,5.9,2.8,8.5,4.7c3.2,2.4,5.2,5.4,4.5,9.6c-0.7,4.1-3.3,6.6-7,8.1c-2.3,0.9-4.7,1.1-7.2,1.1
			C84.9,112.7,75.8,112.7,66.7,112.7z"/>
	</g>
	<polyline class="st7" points="147.2,28.3 148.2,28.1 180,19.5 172.7,46.7 163.6,37 154.9,43 160.4,33.1 174.5,23.5 156.6,30.6 	"/>
	<g>
		<g>
			<path class="st22" d="M44.7,122.1c-1,0-1.9,0-2.9,0v-1c1,0,1.9,0,2.9,0L44.7,122.1z"/>
		</g>
		<g>
			<path class="st22" d="M80.5,122.5c-2,0-4,0-6,0l0-1c2,0,4,0,6,0L80.5,122.5z M86.5,122.5l0-1c1.9,0,3.9,0,5.8-0.1l0.2,0l0,1
				l-0.2,0C90.3,122.5,88.4,122.5,86.5,122.5z M68.5,122.4l-6-0.1l0-1l6,0.1L68.5,122.4z M56.6,122.2c-2,0-4-0.1-6-0.1l0-1
				c2,0,4,0,6,0.1L56.6,122.2z M98.4,122l-0.1-1c2.1-0.3,4-0.7,5.7-1.2l0.3,0.9C102.6,121.3,100.6,121.7,98.4,122z M109.9,118.2
				l-0.5-0.8c1.7-1.1,3.1-2.4,4.2-3.9l0.8,0.6C113.2,115.6,111.7,117,109.9,118.2z M116.8,108.4l-0.9-0.2c0.2-0.8,0.3-1.6,0.4-2.5
				c0.1-1,0.2-2,0.2-3l0-0.3l1,0l0,0.3c0,1-0.1,2.1-0.2,3.1C117.2,106.7,117,107.6,116.8,108.4z M115.7,96.6
				c-0.5-1.9-1.4-3.7-2.4-5.3l0.8-0.5c1.1,1.7,2,3.5,2.5,5.5L115.7,96.6z M109.3,87.2c-0.6-0.4-1.2-0.8-1.8-1.1
				c-1-0.6-2.1-1.1-3.4-1.6l0.4-0.9c1.3,0.5,2.5,1.1,3.5,1.7c0.6,0.4,1.3,0.8,1.9,1.2L109.3,87.2z M98.5,82.5l-1.2-0.4
				c-1.5-0.5-3-1-4.5-1.5l0.3-0.9c1.5,0.5,3,1,4.5,1.5l1.2,0.4L98.5,82.5z M87.3,78.2c-2-1-3.6-2.1-5.1-3.4l0.6-0.7
				c1.4,1.2,2.9,2.2,4.9,3.2L87.3,78.2z M78.4,70.1c-0.5-0.9-0.9-1.9-1.3-2.9c-0.3-0.9-0.6-1.9-0.7-2.9l1-0.2
				c0.2,0.9,0.4,1.8,0.7,2.7c0.3,1,0.7,1.9,1.2,2.7L78.4,70.1z M77.4,58.4l-1-0.2c0.4-2,1.1-3.9,2.2-5.7l0.8,0.5
				C78.4,54.7,77.7,56.5,77.4,58.4z M83.2,48.6l-0.6-0.7c0.2-0.2,0.5-0.4,0.7-0.6c1.3-1.1,2.8-2,4.4-2.8l0.4,0.9
				c-1.5,0.7-2.9,1.6-4.2,2.7C83.6,48.2,83.4,48.4,83.2,48.6z M93.6,43.4l-0.2-1c1.8-0.4,3.8-0.8,6-1l0.1,1
				C97.3,42.7,95.4,43,93.6,43.4z M135.2,42.4h-6v-1h6V42.4z M123.2,42.4h-3.7c-0.7,0-1.5,0-2.2,0l0-1c0.8,0,1.5,0,2.2,0h3.7V42.4z
				 M111.3,42.3c-1.6,0-3.8-0.1-6-0.1l0-1c2.1,0,4.4,0,6,0.1L111.3,42.3z"/>
		</g>
		<g>
			<rect x="141.2" y="41.5" class="st22" width="2.9" height="1"/>
		</g>
	</g>
	<polygon class="st61" points="160.4,33.1 163.6,37 154.9,43 	"/>
</g>
</svg>
